<svg xmlns="http://www.w3.org/2000/svg" aria-hidden="true" style="position:absolute;width:0;height:0;overflow:hidden">
    <defs>
        <symbol id="icon-discont" viewBox="0 0 35 32">
            <path
                d="M32.029 20.537zm0-9.074zM3.171 20.537zm0-9.074zm20.077.586a1.2 1.2 0 1 0-1.697-1.697l1.697 1.697zm-11.297 7.903a1.2 1.2 0 1 0 1.697 1.697l-1.697-1.697zM8 29.2A5.2 5.2 0 0 1 2.8 24H.4A7.6 7.6 0 0 0 8 31.6v-2.4zM32.4 24a5.2 5.2 0 0 1-5.2 5.2v2.4a7.6 7.6 0 0 0 7.6-7.6h-2.4zM27.2 2.8A5.2 5.2 0 0 1 32.4 8h2.4A7.6 7.6 0 0 0 27.2.4v2.4zM8 .4A7.6 7.6 0 0 0 .4 8h2.4A5.2 5.2 0 0 1 8 2.8V.4zm24.422 19.003A3.602 3.602 0 0 1 30 16h-2.4a6.003 6.003 0 0 0 4.036 5.671l.785-2.268zM30 16a3.6 3.6 0 0 1 2.422-3.403l-.785-2.268A6.001 6.001 0 0 0 27.601 16h2.4zM5.2 16a3.6 3.6 0 0 1-2.422 3.403l.785 2.268A6.001 6.001 0 0 0 7.599 16h-2.4zm-2.422-3.403A3.603 3.603 0 0 1 5.2 16h2.4a6.003 6.003 0 0 0-4.036-5.671l-.785 2.268zM34.8 9.6V8h-2.4v1.6h2.4zm-2.4 12.8V24h2.4v-1.6h-2.4zm-32 0V24h2.4v-1.6H.4zM2.8 9.6V8H.4v1.6h2.4zm24.4 19.6H8v2.4h19.2v-2.4zm0-28.8H8v2.4h19.2V.4zM2.778 19.403C1.692 19.779.4 20.796.4 22.4h2.4c0-.089.033-.207.163-.35.136-.15.349-.292.601-.379l-.785-2.268zm29.644-6.806c1.086-.376 2.378-1.393 2.378-2.997h-2.4c0 .089-.033.207-.163.35-.136.15-.349.292-.601.379l.785 2.268zM3.564 10.329a1.476 1.476 0 0 1-.601-.379c-.129-.143-.163-.261-.163-.35H.4c0 1.604 1.293 2.621 2.378 2.997l.785-2.268zm28.072 11.342c.252.087.465.229.601.379.129.143.163.26.163.35h2.4c0-1.604-1.292-2.621-2.378-2.997l-.785 2.268zM13.2 11.2a.4.4 0 0 1-.4.4V14a2.8 2.8 0 0 0 2.8-2.8h-2.4zm-.4.4a.4.4 0 0 1-.4-.4H10a2.8 2.8 0 0 0 2.8 2.8v-2.4zm-.4-.4a.4.4 0 0 1 .4-.4V8.4a2.8 2.8 0 0 0-2.8 2.8h2.4zm.4-.4a.4.4 0 0 1 .4.4h2.4a2.8 2.8 0 0 0-2.8-2.8v2.4zm10 10a.4.4 0 0 1-.4.4v2.4a2.8 2.8 0 0 0 2.8-2.8h-2.4zm-.4.4a.4.4 0 0 1-.4-.4h-2.4a2.8 2.8 0 0 0 2.8 2.8v-2.4zm-.4-.4a.4.4 0 0 1 .4-.4V18a2.8 2.8 0 0 0-2.8 2.8H22zm.4-.4a.4.4 0 0 1 .4.4h2.4a2.8 2.8 0 0 0-2.8-2.8v2.4zm-.848-10.049-9.6 9.6 1.697 1.697 9.6-9.6-1.697-1.697z" />
        </symbol>
        <symbol id="icon-arrow-right" viewBox="0 0 32 32">
            <path stroke-linecap="round" stroke-linejoin="round" stroke-width="2"
                d="M6.667 16h18.667M17.333 24l8-8M17.333 8l8 8" />
        </symbol>
        <symbol id="icon-search" viewBox="0 0 32 32">
            <path stroke-linecap="round" stroke-linejoin="round" stroke-width="2.182"
                d="m25.455 25.455 5.091 5.091m-1.455-15.273c0-7.632-6.187-13.818-13.818-13.818S1.455 7.642 1.455 15.273c0 7.632 6.187 13.818 13.818 13.818s13.818-6.187 13.818-13.818z" />
        </symbol>
        <symbol id="icon-bag" viewBox="0 0 32 32">
            <path stroke-linecap="round" stroke-linejoin="round" stroke-width="2" d="M12 8v1.333a4 4 0 0 0 8 0V8" />
            <path stroke-linejoin="round" stroke-width="2"
                d="M20.815 4h-9.631a5.334 5.334 0 0 0-5.261 4.457L3.701 21.79C3.159 25.041 5.666 28 8.962 28h14.075c3.296 0 5.803-2.959 5.261-6.21L26.076 8.457A5.334 5.334 0 0 0 20.815 4z" />
        </symbol>
        <symbol id="icon-account" viewBox="0 0 32 32">
            <path stroke-linejoin="round" stroke-width="2.182"
                d="M25.54 26.98c-1.445-3.865-5.171-6.616-9.54-6.616s-8.095 2.752-9.54 6.616m19.08 0A14.51 14.51 0 0 0 30.545 16c0-8.033-6.512-14.545-14.545-14.545S1.455 7.967 1.455 16c0 4.383 1.939 8.313 5.005 10.98m19.08 0c-2.554 2.221-5.89 3.565-9.54 3.565S9.014 29.2 6.46 26.98m13.904-15.344a4.364 4.364 0 1 1-8.728 0 4.364 4.364 0 0 1 8.728 0z" />
        </symbol>
        <symbol id="icon-criss-cross" viewBox="0 0 32 32">
            <path
                d="M30.512 3.845a1.666 1.666 0 1 0-2.357-2.357L16 13.643 3.845 1.488a1.666 1.666 0 1 0-2.357 2.357L13.643 16 1.488 28.155a1.666 1.666 0 1 0 2.357 2.357L16 18.357l12.155 12.155a1.666 1.666 0 1 0 2.357-2.357L18.357 16 30.512 3.845z" />
        </symbol>
        <symbol id="icon-arrow-left" viewBox="0 0 32 32">
            <path stroke-linecap="round" stroke-linejoin="round" stroke-width="2"
                d="M6.667 16h18.667M6.667 16l8 8M6.667 16l8-8" />
        </symbol>
        <symbol id="icon-arrow-right" viewBox="0 0 32 32">
            <path stroke-linecap="round" stroke-linejoin="round" stroke-width="2"
                d="M6.667 16h18.667M17.333 24l8-8M17.333 8l8 8" />
        </symbol>
    </defs>
</svg>